<svg width="40" height="40" viewBox="0 0 40 40" fill="none" xmlns="http://www.w3.org/2000/svg">
<rect width="40" height="40" rx="5" fill="#E7E7E9" fill-opacity="0.8"/>
<mask id="mask0_1_1363" style="mask-type:alpha" maskUnits="userSpaceOnUse" x="8" y="11" width="24" height="26">
<path d="M30.722 30.4183L21.2924 36.071C20.5013 36.5452 19.517 36.5452 18.7259 36.071L9.29628 30.4183C8.53295 29.9607 8.06494 29.1304 8.06494 28.2337V19.3012C8.06494 18.3821 8.55642 17.5347 9.35018 17.0853L18.7798 11.7466C19.5435 11.3143 20.4748 11.3143 21.2385 11.7466L30.6682 17.0853C31.4619 17.5347 31.9533 18.3821 31.9533 19.3012V28.2337C31.9533 29.1304 31.4854 29.9607 30.722 30.4183Z" fill="#C4C4C4"/>
</mask>
<g mask="url(#mask0_1_1363)">
<path d="M9.05003 30.2708L20.0091 36.8404V25.9982L8.06494 18.6709V28.5232C8.06494 29.2406 8.43931 29.9047 9.05003 30.2708Z" fill="#AD2667"/>
<path d="M20.0093 26.0112L31.9534 18.6865V28.5229C31.9534 29.2403 31.5791 29.9045 30.9684 30.2706L20.0093 36.8402V26.0112Z" fill="#F84098"/>
<path d="M8.80508 17.4124L18.7961 11.9051C19.5439 11.4929 20.4476 11.4912 21.197 11.9007L31.2035 17.3686C32.245 17.9377 32.2613 19.4417 31.2323 20.0337L21.237 25.7837C20.467 26.2267 19.5231 26.2276 18.7524 25.786L8.78367 20.0762C7.75458 19.4868 7.76675 17.9849 8.80508 17.4124Z" fill="#FFE3F1"/>
</g>
<mask id="mask1_1_1363" style="mask-type:alpha" maskUnits="userSpaceOnUse" x="12" y="4" width="16" height="19">
<path d="M12.5871 17.7658L19.3997 5.25305C19.7418 4.62447 20.6422 4.64316 20.9586 5.28542L27.1298 17.8135C27.334 18.2281 27.1889 18.7317 26.7963 18.9708L21.6511 22.1044C20.7585 22.648 19.6472 22.6723 18.732 22.168L12.9368 18.9747C12.509 18.739 12.3523 18.1971 12.5871 17.7658Z" fill="#AD2667"/>
</mask>
<g mask="url(#mask1_1_1363)">
<path d="M12.1055 18.5345L20.2095 23.0526V3.72998L12.1055 18.5345Z" fill="#AD2667"/>
<path d="M20.2095 23.0526L27.5771 18.7349L20.2095 3.72998V23.0526Z" fill="#F84098"/>
</g>
</svg>
