<svg width="40" height="40" viewBox="0 0 40 40" fill="none" xmlns="http://www.w3.org/2000/svg">
<rect width="40" height="40" rx="5" fill="#E7E7E9" fill-opacity="0.8"/>
<g clip-path="url(#clip0_1_1330)">
<path d="M4.69542 25.0515L7.62896 27.6749C7.91743 27.9303 8.58498 28.3849 9.19579 28.6057L16.1897 30.7398C16.9694 30.9776 17.9481 30.9315 18.6358 30.6247L34.1061 23.7225C35.0604 23.2967 34.894 21.9588 34.894 21.2027L34.9591 17.418L20.5551 14.8421C19.6649 14.3721 18.2015 14.4088 17.3995 14.9211L4.11376 18.3841V21.7642C4.11376 23.5373 3.83203 24.3397 4.69542 25.0515Z" fill="#0A52A8"/>
<path d="M4.40471 18.9818L8.32399 22.6507C8.51163 22.8264 8.78504 22.9722 9.11579 23.0731L16.332 25.2735C17.1117 25.5113 18.0903 25.4652 18.7781 25.1584L34.2483 18.2562C35.2027 17.8304 35.2635 17.0649 34.3798 16.5985L20.6974 9.37579C19.8071 8.90581 18.3438 8.94248 17.5418 9.45478L4.61862 17.7103C4.05567 18.0699 3.97063 18.5754 4.40471 18.9818Z" fill="#4497F9"/>
<path d="M28.1697 15.4648C28.6384 15.1693 28.5389 17.0408 28.5389 17.6394C28.5707 18.1786 28.2081 18.6463 27.306 19.1226L25.4792 20.0807C25.4792 20.1843 25.4838 20.2869 25.4792 20.6305C25.4756 20.9086 25.5286 21.0844 25.339 21.1844L23.9213 21.9328C23.7318 22.0328 23.4406 22.0258 23.2517 21.9451C23.0283 21.8497 22.8266 21.8019 22.6455 21.7906C22.4224 21.7767 22.1944 21.8209 21.9543 21.9476L19.9766 22.9916C19.074 23.468 18.1312 23.694 17.154 23.6399C16.1966 23.587 15.2854 23.3252 14.4208 22.8687C14.1067 22.6735 14.1709 22.21 14.1709 21.8758V20.8232C14.357 20.725 15.9175 21.0327 16.1035 21.1309L16.2177 21.1912C16.4834 21.3314 16.7088 21.3782 16.8997 21.3684L16.9055 21.3681L16.9113 21.368C17.1179 21.3645 17.3396 21.3101 17.5777 21.1844L19.8112 20.7343C20.335 20.4578 20.8628 20.3005 21.3931 20.2902C21.8129 20.282 21.1591 19.6986 21.5618 19.843C21.2934 19.6273 22.2247 20.0644 22.2402 19.843C22.2599 19.5631 22.0627 18.3366 22.3046 17.9264L25.0723 17.9571C25.3204 17.8261 25.4265 17.7068 25.4331 17.5985L25.4332 17.5968L25.4334 17.5952C25.4456 17.4984 25.3531 17.3805 25.0853 17.2392L24.971 17.1789C24.785 17.0807 24.785 16.9215 24.971 16.8232L24.8441 16.3211C24.8441 15.816 24.8441 15.6221 24.8441 15.2576L28.1697 15.4648Z" fill="#0A52A8"/>
<path d="M8.80273 19.2318C8.90303 19.7373 9.39916 20.2182 10.2638 20.6746L10.378 20.7349C10.5641 20.8332 10.8657 20.8332 11.0517 20.7349L12.2775 20.1025C12.5265 19.9507 12.4826 19.7533 12.4826 19.5537C12.4826 19.26 12.4826 19.1271 12.4826 18.8163L14.3071 17.8291C14.8309 17.5526 15.1289 17.274 15.1485 16.994C15.1641 16.7725 15.1485 16.6936 15.1485 16.4258C15.4275 16.5469 15.5763 16.5551 15.9956 16.5469C16.526 16.5365 17.0538 16.3792 17.5776 16.1027L19.5683 15.0519C19.817 14.9206 20.04 14.8621 20.2377 14.8546C20.4337 14.8518 20.6628 14.905 20.9282 15.0451L21.0425 15.1054C21.2285 15.2036 21.5301 15.2036 21.7161 15.1054L22.9164 14.4754C23.1973 14.3255 23.141 13.986 23.141 13.619V12.4767C22.2767 12.0205 21.1123 12.9481 20.1552 12.895C19.1856 12.8361 18.2626 13.3966 17.3604 13.8728L14.8683 14.4184C14.6283 14.5451 14.5302 14.7346 14.3071 14.7207C14.126 14.7094 12.1994 14.0975 11.976 14.0021C11.7872 13.9215 11.9186 15.0436 11.9186 15.4199L12.0368 15.6595C11.8473 15.7595 11.8606 15.9133 12.0134 16.013C12.1941 16.1309 12.2848 16.2374 12.3061 16.333C12.3324 16.4507 12.2488 16.5711 12.0088 16.6978L8.80273 17.29C8.80273 17.6079 8.80273 18.5846 8.80273 19.2318Z" fill="#0A52A8"/>
<path d="M27.0725 14.4406C27.9369 14.8969 28.4329 15.3777 28.5334 15.8829C28.645 16.3947 28.2202 16.8903 27.3182 17.3666L25.3792 18.3901C25.1392 18.5168 25.0556 18.6372 25.0819 18.755C25.1032 18.8506 25.1939 18.957 25.3746 19.075C25.5274 19.1746 25.5407 19.3284 25.3512 19.4284L23.9335 20.1768C23.7439 20.2769 23.4527 20.2698 23.2638 20.1892C23.0405 20.0938 22.8387 20.0459 22.6577 20.0347C22.4346 20.0208 22.2065 20.0649 21.9665 20.1916L19.9887 21.2356C19.0861 21.7121 18.1433 21.938 17.1661 21.8841C16.2087 21.8311 15.2976 21.5692 14.433 21.1128L14.3187 21.0525C14.1327 20.9543 14.1327 20.7951 14.3187 20.6968L15.6201 20.0099C15.8061 19.9116 16.1078 19.9116 16.2938 20.0099L16.4081 20.0702C16.6737 20.2103 16.8991 20.2571 17.09 20.2473L17.0958 20.2471L17.1016 20.247C17.3082 20.2434 17.5299 20.1891 17.768 20.0633L19.8234 18.9784C20.3471 18.7019 20.8749 18.5446 21.4053 18.5342C21.8251 18.526 22.2376 18.5989 22.6403 18.7433C22.3719 18.5276 22.2369 18.3085 22.2524 18.0871C22.272 17.8071 22.57 17.5285 23.0938 17.252L25.0845 16.2011C25.3326 16.0702 25.4386 15.9508 25.4453 15.8426L25.4453 15.8409L25.4456 15.8393C25.4578 15.7424 25.3652 15.6246 25.0974 15.4833L24.9831 15.423C24.7971 15.3247 24.7971 15.1655 24.9831 15.0673L26.2846 14.3803C26.4707 14.2821 26.7722 14.2821 26.9583 14.3803L27.0725 14.4406Z" fill="#F2F8FF"/>
<path d="M8.81466 17.4756C8.91503 17.981 9.41109 18.462 10.2757 18.9184L10.39 18.9787C10.576 19.0769 10.8776 19.0769 11.0636 18.9787L12.3651 18.2917C12.5511 18.1935 12.5511 18.0343 12.3651 17.9361L12.2508 17.8758C11.9862 17.7361 11.8901 17.6135 11.9027 17.5059C11.9162 17.4005 12.0237 17.2846 12.2637 17.1579L14.319 16.0729C14.8429 15.7964 15.1408 15.5178 15.1604 15.2378C15.176 15.0162 15.038 14.7985 14.7643 14.586C15.1729 14.7276 15.5882 14.7989 16.0076 14.7907C16.538 14.7803 17.0658 14.623 17.5895 14.3465L19.5802 13.2957C19.829 13.1644 20.052 13.1059 20.2497 13.0983C20.4456 13.0956 20.6747 13.1487 20.9401 13.2888L21.0544 13.3492C21.2404 13.4474 21.5421 13.4474 21.7281 13.3492L23.0295 12.6622C23.2156 12.564 23.2156 12.4047 23.0295 12.3065L22.9153 12.2462C22.051 11.7899 21.1401 11.5281 20.183 11.475C19.2135 11.4162 18.2745 11.6404 17.3724 12.1166L15.4335 13.1401C15.1934 13.2668 14.9654 13.3109 14.7423 13.297C14.5612 13.2858 14.3595 13.238 14.1361 13.1425C13.9472 13.0619 13.656 13.0549 13.4665 13.1549L12.0488 13.9033C11.8592 14.0033 11.8725 14.1571 12.0254 14.2568C12.2061 14.3747 12.2967 14.4812 12.318 14.5767C12.3443 14.6946 12.2608 14.8149 12.0208 14.9416L10.043 15.9856C9.14039 16.4621 8.71233 16.9597 8.81466 17.4756Z" fill="#F2F8FF"/>
</g>
<defs>
<clipPath id="clip0_1_1330">
<rect width="31" height="22" fill="white" transform="translate(4 9)"/>
</clipPath>
</defs>
</svg>
