<?xml version="1.0" encoding="UTF-8"?>
<svg xmlns="http://www.w3.org/2000/svg" xmlns:xlink="http://www.w3.org/1999/xlink" width="200pt" height="300pt" viewBox="0 0 200 300" version="1.1">
<g id="surface1">
<path style=" stroke:none;fill-rule:nonzero;fill:rgb(80.784314%,8.627451%,15.686275%);fill-opacity:1;" d="M 112.578125 276.261719 L 114.175781 273.773438 L 117.230469 284.164062 L 124.453125 284.164062 L 118.679688 266.59375 L 124.453125 254.878906 L 117.109375 254.878906 L 112.617188 266.824219 L 112.617188 254.878906 L 106.125 254.878906 L 106.125 284.164062 L 112.578125 284.164062 Z M 112.578125 276.261719 "/>
<path style=" stroke:none;fill-rule:nonzero;fill:rgb(80.784314%,8.627451%,15.686275%);fill-opacity:1;" d="M 87.207031 265.945312 L 83.40625 265.945312 L 83.40625 254.960938 L 76.480469 254.960938 L 76.480469 284.472656 L 83.40625 284.472656 L 83.40625 271.839844 L 87.207031 271.839844 L 87.207031 284.472656 L 93.925781 284.472656 L 93.925781 254.960938 L 87.207031 254.960938 Z M 87.207031 265.945312 "/>
<path style=" stroke:none;fill-rule:nonzero;fill:rgb(80.784314%,8.627451%,15.686275%);fill-opacity:1;" d="M 173.480469 278.886719 L 178.433594 278.886719 L 178.960938 284.472656 L 186.398438 284.472656 L 180.664062 254.8125 L 171.65625 254.8125 L 166.246094 284.472656 L 172.75 284.472656 Z M 175.753906 261.035156 L 175.820312 260.4375 L 175.820312 259.964844 L 176.523438 259.964844 L 176.523438 260.386719 L 176.59375 261.046875 L 177.878906 274.195312 L 173.957031 274.195312 Z M 175.753906 261.035156 "/>
<path style=" stroke:none;fill-rule:nonzero;fill:rgb(80.784314%,8.627451%,15.686275%);fill-opacity:1;" d="M 48.726562 247.957031 L 43.328125 247.957031 L 41.761719 252.757812 L 45.359375 252.757812 Z M 48.726562 247.957031 "/>
<path style=" stroke:none;fill-rule:nonzero;fill:rgb(80.784314%,8.627451%,15.686275%);fill-opacity:1;" d="M 133.582031 271.839844 L 137.398438 271.839844 L 137.398438 284.472656 L 144.132812 284.472656 L 144.132812 254.960938 L 137.398438 254.960938 L 137.398438 265.945312 L 133.582031 265.945312 L 133.582031 254.960938 L 126.65625 254.960938 L 126.65625 284.472656 L 133.582031 284.472656 Z M 133.582031 271.839844 "/>
<path style=" stroke:none;fill-rule:nonzero;fill:rgb(80.784314%,8.627451%,15.686275%);fill-opacity:1;" d="M 39.625 254.8125 L 34.214844 284.472656 L 40.789062 284.472656 L 41.503906 278.886719 L 46.398438 278.886719 L 46.941406 284.472656 L 54.3125 284.472656 L 48.605469 254.8125 Z M 42.03125 274.261719 L 43.707031 261.101562 L 43.789062 260.453125 L 43.789062 260.019531 L 44.507812 260.019531 L 44.613281 261.140625 L 45.871094 274.261719 Z M 42.03125 274.261719 "/>
<path style=" stroke:none;fill-rule:nonzero;fill:rgb(100%,100%,100%);fill-opacity:1;" d="M 80.160156 184.957031 L 80.160156 212.832031 L 81.335938 212.832031 C 82.265625 212.832031 83.195312 212.789062 84.121094 212.695312 L 85.242188 212.613281 C 85.664062 212.613281 86.070312 212.480469 86.476562 212.398438 C 87.40625 212.261719 88.355469 212.074219 89.273438 211.855469 C 95.234375 210.402344 100.667969 207.324219 104.976562 202.957031 C 105.53125 202.390625 106.085938 201.78125 106.574219 201.1875 C 106.832031 200.886719 107.085938 200.578125 107.332031 200.265625 L 108.304688 199.007812 C 108.683594 198.414062 109.074219 197.84375 109.441406 197.25 C 109.679688 196.910156 109.902344 196.558594 110.101562 196.195312 C 110.375 195.722656 110.644531 195.207031 110.886719 194.722656 C 110.996094 194.519531 111.089844 194.300781 111.210938 194.097656 C 111.71875 193.085938 112.167969 192.046875 112.566406 190.988281 C 112.566406 190.839844 112.660156 190.71875 112.714844 190.554688 C 112.957031 189.9375 113.160156 189.304688 113.320312 188.660156 C 114.15625 185.730469 114.578125 182.699219 114.578125 179.652344 C 114.558594 176.550781 114.101562 173.460938 113.226562 170.484375 C 113.050781 169.886719 112.875 169.335938 112.660156 168.738281 C 112.59375 168.507812 112.507812 168.28125 112.402344 168.0625 C 112.082031 167.171875 111.714844 166.292969 111.308594 165.4375 C 111.164062 165.097656 111 164.761719 110.820312 164.4375 C 110.589844 163.992188 110.386719 163.585938 110.128906 163.179688 C 109.875 162.773438 109.5625 162.21875 109.277344 161.746094 C 108.996094 161.273438 108.792969 161.03125 108.574219 160.664062 C 108.128906 160.054688 107.695312 159.472656 107.222656 158.894531 L 106.65625 158.203125 C 104.871094 156.097656 102.832031 154.226562 100.582031 152.628906 L 82.539062 180.804688 Z M 80.160156 184.957031 "/>
<path style=" stroke:none;fill-rule:nonzero;fill:rgb(100%,100%,100%);fill-opacity:1;" d="M 94.671875 149.25 C 92.921875 148.484375 91.113281 147.867188 89.261719 147.410156 C 88.355469 147.179688 87.449219 147.03125 86.554688 146.867188 L 85.203125 146.652344 L 84.082031 146.558594 C 83.160156 146.558594 82.253906 146.421875 81.292969 146.421875 L 80.117188 146.421875 L 80.117188 177.613281 Z M 94.671875 149.25 "/>
<path style=" stroke:none;fill-rule:nonzero;fill:rgb(100%,100%,100%);fill-opacity:1;" d="M 89.273438 142.90625 C 91.816406 143.457031 94.289062 144.269531 96.660156 145.339844 L 129.402344 81.230469 L 80.160156 106.199219 L 80.160156 135.601562 L 89.273438 135.601562 Z M 89.273438 142.90625 "/>
<path style=" stroke:none;fill-rule:nonzero;fill:rgb(95.294118%,75.686275%,3.137255%);fill-opacity:1;" d="M 78.496094 212.722656 L 77.277344 212.601562 L 76.101562 212.425781 C 74.964844 212.234375 73.816406 212.003906 72.707031 211.722656 C 66.75 210.101562 61.359375 206.855469 57.140625 202.347656 C 56.382812 201.5625 55.691406 200.738281 55.027344 199.902344 C 54.867188 199.671875 54.675781 199.425781 54.515625 199.183594 C 53.402344 197.675781 52.429688 196.066406 51.605469 194.382812 C 51.605469 194.273438 51.5 194.125 51.429688 194.003906 C 50.566406 192.171875 49.855469 190.273438 49.308594 188.324219 C 48.546875 185.492188 48.15625 182.574219 48.144531 179.640625 C 48.15625 176.660156 48.5625 173.695312 49.363281 170.820312 C 49.890625 168.890625 50.59375 167.011719 51.472656 165.207031 C 51.472656 165.074219 51.605469 164.925781 51.675781 164.777344 C 51.972656 164.234375 52.242188 163.679688 52.554688 163.140625 L 52.863281 162.625 C 53.378906 161.800781 53.90625 160.960938 54.5 160.164062 C 54.730469 159.839844 54.949219 159.542969 55.191406 159.246094 C 55.484375 158.84375 55.792969 158.460938 56.125 158.09375 C 56.582031 157.523438 57.074219 156.984375 57.597656 156.472656 C 61.757812 152.195312 66.996094 149.121094 72.761719 147.570312 C 73.855469 147.300781 74.964844 147.058594 76.101562 146.882812 L 77.304688 146.691406 L 78.523438 146.542969 L 80.1875 146.449219 L 80.1875 135.628906 L 72.707031 135.628906 L 72.707031 143.109375 C 65.410156 144.828125 58.792969 148.683594 53.703125 154.1875 L 47.0625 150.34375 L 38.785156 164.707031 L 45.414062 168.535156 C 44.304688 172.113281 43.746094 175.839844 43.75 179.585938 C 43.757812 183.289062 44.296875 186.96875 45.359375 190.515625 L 38.785156 194.300781 L 47.0625 208.652344 L 53.59375 204.890625 C 58.6875 210.488281 65.347656 214.417969 72.707031 216.171875 L 72.707031 223.476562 L 80.160156 223.476562 L 80.160156 212.777344 C 79.605469 212.777344 79.050781 212.777344 78.496094 212.667969 "/>
<path style=" stroke:none;fill-rule:nonzero;fill:rgb(95.294118%,75.686275%,3.137255%);fill-opacity:1;" d="M 89.273438 216.402344 C 96.789062 214.761719 103.621094 210.863281 108.859375 205.230469 L 114.917969 208.71875 L 123.210938 194.367188 L 117.203125 190.921875 C 119.519531 183.542969 119.519531 175.632812 117.203125 168.253906 L 123.25 164.777344 L 114.917969 150.398438 L 108.722656 153.96875 C 106.992188 152.109375 105.074219 150.425781 103.003906 148.953125 L 100.648438 152.617188 C 102.886719 154.234375 104.914062 156.121094 106.679688 158.242188 L 107.25 158.933594 C 107.722656 159.515625 108.15625 160.097656 108.601562 160.707031 C 108.816406 161.070312 109.0625 161.433594 109.304688 161.789062 C 109.546875 162.140625 109.886719 162.734375 110.15625 163.222656 C 110.429688 163.707031 110.617188 164.03125 110.847656 164.480469 C 111.027344 164.800781 111.191406 165.136719 111.335938 165.480469 C 111.742188 166.335938 112.109375 167.210938 112.429688 168.101562 C 112.535156 168.320312 112.621094 168.546875 112.6875 168.78125 C 112.902344 169.375 113.078125 169.929688 113.253906 170.523438 C 114.128906 173.503906 114.585938 176.589844 114.605469 179.695312 C 114.605469 182.742188 114.183594 185.773438 113.347656 188.703125 C 113.1875 189.34375 112.984375 189.976562 112.742188 190.59375 C 112.742188 190.757812 112.632812 190.878906 112.578125 191.027344 C 112.214844 192.089844 111.789062 193.128906 111.308594 194.140625 C 111.183594 194.34375 111.089844 194.558594 110.980469 194.761719 C 110.738281 195.25 110.46875 195.761719 110.199219 196.234375 C 109.996094 196.597656 109.773438 196.953125 109.535156 197.289062 C 109.171875 197.886719 108.777344 198.453125 108.386719 199.046875 C 107.992188 199.644531 107.75 199.875 107.425781 200.304688 C 107.101562 200.738281 106.925781 200.929688 106.667969 201.226562 C 106.179688 201.820312 105.625 202.429688 105.070312 203 C 100.765625 207.363281 95.328125 210.445312 89.371094 211.898438 C 88.449219 212.113281 87.503906 212.304688 86.570312 212.4375 C 86.164062 212.519531 85.757812 212.601562 85.339844 212.65625 L 84.214844 212.734375 C 83.289062 212.828125 82.359375 212.875 81.429688 212.871094 L 80.253906 212.871094 L 80.253906 223.570312 L 89.371094 223.570312 Z M 89.273438 216.402344 "/>
<path style=" stroke:none;fill-rule:nonzero;fill:rgb(95.294118%,75.686275%,3.137255%);fill-opacity:1;" d="M 81.363281 146.421875 C 82.324219 146.421875 83.230469 146.421875 84.148438 146.542969 L 85.269531 146.652344 L 86.625 146.867188 C 87.542969 147.03125 88.449219 147.179688 89.328125 147.410156 C 91.179688 147.867188 92.988281 148.480469 94.738281 149.234375 L 96.726562 145.339844 C 94.359375 144.269531 91.882812 143.457031 89.34375 142.90625 L 89.34375 135.601562 L 80.160156 135.601562 L 80.160156 146.421875 L 81.335938 146.421875 "/>
<path style=" stroke:none;fill-rule:nonzero;fill:rgb(80.784314%,8.627451%,15.686275%);fill-opacity:1;" d="M 118.960938 41.886719 L 123.304688 41.886719 L 123.304688 44.496094 L 118.960938 44.496094 Z M 118.960938 41.886719 "/>
<path style=" stroke:none;fill-rule:nonzero;fill:rgb(80.784314%,8.627451%,15.686275%);fill-opacity:1;" d="M 159.726562 40.035156 C 160.304688 40.128906 160.894531 40.128906 161.472656 40.035156 L 160.808594 40.035156 C 160.445312 40.035156 160.085938 40.007812 159.726562 39.953125 "/>
<path style=" stroke:none;fill-rule:nonzero;fill:rgb(80.784314%,8.627451%,15.686275%);fill-opacity:1;" d="M 158.578125 41.886719 L 162.90625 41.886719 L 162.90625 44.496094 L 158.578125 44.496094 Z M 158.578125 41.886719 "/>
<path style=" stroke:none;fill-rule:nonzero;fill:rgb(80.784314%,8.627451%,15.686275%);fill-opacity:1;" d="M 129.226562 20.179688 L 133.757812 20.179688 L 133.757812 39.859375 L 129.226562 39.859375 Z M 129.226562 20.179688 "/>
<path style=" stroke:none;fill-rule:nonzero;fill:rgb(80.784314%,8.627451%,15.686275%);fill-opacity:1;" d="M 119.4375 36.167969 L 122.734375 36.167969 L 123.074219 39.859375 L 128.066406 39.859375 L 124.195312 20.179688 L 118.21875 20.179688 L 114.632812 39.859375 L 118.960938 39.859375 Z M 120.992188 23.992188 L 120.992188 23.695312 L 121.449219 23.695312 L 121.449219 23.953125 L 122.355469 33.148438 L 119.8125 33.148438 Z M 120.992188 23.992188 "/>
<path style=" stroke:none;fill-rule:nonzero;fill:rgb(80.784314%,8.627451%,15.686275%);fill-opacity:1;" d="M 145.578125 31.433594 L 148.09375 31.433594 L 148.09375 39.859375 L 152.625 39.859375 L 152.625 20.179688 L 148.09375 20.179688 L 148.09375 27.511719 L 145.578125 27.511719 L 145.578125 20.179688 L 140.898438 20.179688 L 140.898438 39.859375 L 145.578125 39.859375 Z M 145.578125 31.433594 "/>
<path style=" stroke:none;fill-rule:nonzero;fill:rgb(80.784314%,8.627451%,15.686275%);fill-opacity:1;" d="M 0.210938 300 L 199.789062 300 L 199.789062 0 L 0.210938 0 Z M 36.730469 32.203125 L 40.691406 20.03125 L 44.640625 32.203125 L 57.421875 32.203125 L 47.0625 39.710938 L 51.011719 51.882812 L 40.664062 44.347656 L 30.292969 51.9375 L 34.253906 39.765625 L 23.894531 32.257812 Z M 198.109375 298.484375 L 1.6875 298.484375 L 1.6875 240.082031 L 69.3125 240.082031 C 71.027344 240.285156 79.847656 241.503906 80.132812 249.078125 C 80.132812 247.277344 80.644531 240.476562 88.152344 240.082031 L 198.082031 240.082031 Z M 198.207031 238.433594 L 88.652344 238.433594 C 85.949219 238.570312 82.132812 238.433594 80.210938 243.289062 L 80.210938 223.527344 L 72.707031 223.527344 L 72.707031 216.210938 C 65.34375 214.46875 58.683594 210.542969 53.59375 204.945312 L 47.0625 208.707031 L 38.785156 194.355469 L 45.359375 190.570312 C 44.296875 187.023438 43.757812 183.339844 43.75 179.640625 C 43.746094 175.894531 44.304688 172.167969 45.414062 168.589844 L 38.785156 164.761719 L 47.0625 150.398438 L 53.703125 154.1875 C 58.785156 148.65625 65.402344 144.769531 72.707031 143.027344 L 72.707031 135.546875 L 80.160156 135.546875 L 80.160156 104.144531 L 37.675781 125.785156 L 80.160156 98.136719 L 80.160156 1.621094 L 198.207031 1.621094 Z M 198.207031 238.433594 "/>
<path style=" stroke:none;fill-rule:nonzero;fill:rgb(80.784314%,8.627451%,15.686275%);fill-opacity:1;" d="M 99.132812 151.617188 L 81.050781 179.882812 L 96.28125 150.128906 C 95.753906 149.859375 95.210938 149.601562 94.671875 149.371094 L 80.160156 177.773438 L 80.160156 146.449219 L 78.496094 146.542969 L 77.277344 146.691406 L 76.074219 146.882812 C 74.9375 147.058594 73.828125 147.300781 72.734375 147.570312 C 66.96875 149.121094 61.734375 152.195312 57.570312 156.472656 C 57.046875 156.984375 56.554688 157.523438 56.097656 158.09375 C 55.757812 158.472656 55.460938 158.851562 55.164062 159.246094 C 54.867188 159.636719 54.703125 159.839844 54.472656 160.164062 C 53.878906 160.960938 53.367188 161.800781 52.839844 162.625 L 52.527344 163.140625 C 52.214844 163.679688 51.957031 164.222656 51.648438 164.777344 L 51.445312 165.207031 C 50.566406 167.011719 49.863281 168.890625 49.335938 170.820312 C 48.539062 173.695312 48.128906 176.660156 48.117188 179.640625 C 48.128906 182.574219 48.519531 185.492188 49.28125 188.324219 C 49.828125 190.273438 50.539062 192.171875 51.40625 194.003906 C 51.40625 194.125 51.527344 194.273438 51.582031 194.382812 C 52.417969 196.0625 53.402344 197.671875 54.515625 199.183594 C 54.675781 199.425781 54.867188 199.671875 55.027344 199.902344 C 55.691406 200.738281 56.382812 201.5625 57.140625 202.347656 C 61.359375 206.855469 66.75 210.101562 72.707031 211.722656 C 73.828125 212.003906 74.964844 212.234375 76.101562 212.425781 L 77.277344 212.601562 L 78.496094 212.722656 C 79.050781 212.722656 79.605469 212.804688 80.160156 212.832031 L 80.160156 184.957031 L 82.539062 180.804688 L 100.609375 152.617188 C 100.121094 152.265625 99.636719 151.941406 99.132812 151.617188 "/>
<path style=" stroke:none;fill-rule:nonzero;fill:rgb(80.784314%,8.627451%,15.686275%);fill-opacity:1;" d="M 96.660156 145.339844 C 97.199219 145.585938 97.742188 145.839844 98.269531 146.113281 L 133.433594 77.132812 L 80.160156 104.144531 L 80.160156 106.144531 L 129.402344 81.230469 Z M 96.660156 145.339844 "/>
<path style=" stroke:none;fill-rule:nonzero;fill:rgb(80.784314%,8.627451%,15.686275%);fill-opacity:1;" d="M 141.480469 58.28125 C 141.179688 59.148438 141.015625 60.0625 140.996094 60.984375 C 140.996094 63.230469 141.886719 65.382812 143.476562 66.964844 C 145.0625 68.550781 147.21875 69.441406 149.460938 69.4375 C 150.34375 69.421875 151.21875 69.273438 152.058594 68.992188 L 101.488281 147.949219 C 101.988281 148.277344 102.476562 148.601562 102.960938 148.953125 L 155.710938 66.746094 C 156.402344 65.78125 157.003906 64.753906 157.507812 63.675781 C 158.398438 61.105469 157.980469 58.261719 156.390625 56.054688 C 154.800781 53.851562 152.234375 52.554688 149.515625 52.585938 C 148.253906 52.585938 147.007812 52.878906 145.878906 53.4375 L 144.996094 53.925781 L 144.644531 54.140625 L 80.160156 96.027344 L 80.160156 98.152344 Z M 149.460938 54.371094 C 153.152344 54.371094 156.144531 57.363281 156.144531 61.050781 C 156.144531 64.742188 153.152344 67.734375 149.460938 67.734375 C 145.769531 67.734375 142.78125 64.742188 142.78125 61.050781 C 142.78125 57.363281 145.769531 54.371094 149.460938 54.371094 "/>
<path style=" stroke:none;fill-rule:nonzero;fill:rgb(80.784314%,8.627451%,15.686275%);fill-opacity:1;" d="M 98.269531 146.070312 C 97.742188 145.800781 97.199219 145.542969 96.660156 145.300781 L 94.671875 149.207031 C 95.210938 149.4375 95.753906 149.695312 96.28125 149.964844 Z M 98.269531 146.070312 "/>
<path style=" stroke:none;fill-rule:nonzero;fill:rgb(80.784314%,8.627451%,15.686275%);fill-opacity:1;" d="M 99.132812 151.617188 C 99.636719 151.941406 100.121094 152.265625 100.609375 152.617188 L 103.003906 148.953125 C 102.515625 148.601562 102.027344 148.277344 101.527344 147.949219 Z M 99.132812 151.617188 "/>
<path style=" stroke:none;fill-rule:nonzero;fill:rgb(95.294118%,75.686275%,3.137255%);fill-opacity:1;" d="M 37.675781 125.742188 L 80.160156 104.199219 L 80.160156 98.136719 Z M 37.675781 125.742188 "/>
<path style=" stroke:none;fill-rule:nonzero;fill:rgb(95.294118%,75.686275%,3.137255%);fill-opacity:1;" d="M 149.460938 67.71875 C 153.152344 67.71875 156.144531 64.726562 156.144531 61.035156 C 156.140625 57.34375 153.144531 54.351562 149.453125 54.355469 C 145.761719 54.363281 142.773438 57.359375 142.78125 61.050781 C 142.78125 62.824219 143.484375 64.519531 144.738281 65.773438 C 145.992188 67.023438 147.691406 67.722656 149.460938 67.71875 "/>
<path style=" stroke:none;fill-rule:nonzero;fill:rgb(95.294118%,75.686275%,3.137255%);fill-opacity:1;" d="M 152.058594 69.058594 C 151.214844 69.339844 150.335938 69.492188 149.449219 69.503906 C 144.777344 69.503906 140.996094 65.722656 140.996094 61.050781 C 141.015625 60.128906 141.179688 59.21875 141.480469 58.347656 L 80.160156 98.136719 L 80.160156 104.144531 L 133.460938 77.09375 L 98.296875 146.070312 C 99.40625 146.640625 100.472656 147.246094 101.515625 147.910156 Z M 152.058594 69.058594 "/>
<path style=" stroke:none;fill-rule:nonzero;fill:rgb(95.294118%,75.686275%,3.137255%);fill-opacity:1;" d="M 81.050781 179.882812 L 99.132812 151.617188 C 98.214844 151.035156 97.253906 150.492188 96.28125 150.007812 Z M 81.050781 179.882812 "/>
<path style=" stroke:none;fill-rule:nonzero;fill:rgb(95.294118%,75.686275%,3.137255%);fill-opacity:1;" d="M 99.132812 151.617188 L 101.488281 147.949219 C 100.449219 147.269531 99.375 146.640625 98.269531 146.070312 L 96.238281 150.007812 C 97.214844 150.492188 98.175781 151.035156 99.09375 151.617188 "/>
<path style=" stroke:none;fill-rule:nonzero;fill:rgb(95.294118%,75.686275%,3.137255%);fill-opacity:1;" d="M 30.304688 51.9375 L 40.664062 44.402344 L 51.011719 51.9375 L 47.0625 39.75 L 57.421875 32.242188 L 44.613281 32.242188 L 40.664062 20.042969 L 36.703125 32.242188 L 23.894531 32.242188 L 34.253906 39.75 Z M 30.304688 51.9375 "/>
<path style=" stroke:none;fill-rule:nonzero;fill:rgb(95.294118%,75.686275%,3.137255%);fill-opacity:1;" d="M 43.789062 260.453125 L 43.707031 261.101562 L 43.804688 260.453125 L 43.789062 260.453125 "/>
<path style=" stroke:none;fill-rule:nonzero;fill:rgb(95.294118%,75.686275%,3.137255%);fill-opacity:1;" d="M 176.632812 260.398438 L 176.699219 261.0625 Z M 176.632812 260.398438 "/>
<path style=" stroke:none;fill-rule:nonzero;fill:rgb(95.294118%,75.686275%,3.137255%);fill-opacity:1;" d="M 65.46875 259.683594 C 65.691406 259.734375 65.902344 259.828125 66.09375 259.953125 C 65.910156 259.8125 65.699219 259.71875 65.46875 259.683594 "/>
<path style=" stroke:none;fill-rule:nonzero;fill:rgb(95.294118%,75.686275%,3.137255%);fill-opacity:1;" d="M 175.820312 260.453125 L 175.753906 261.0625 L 175.820312 260.453125 "/>
<path style=" stroke:none;fill-rule:nonzero;fill:rgb(80.784314%,8.627451%,15.686275%);fill-opacity:1;" d="M 31.617188 272.449219 C 31.617188 270.359375 29.921875 268.664062 27.832031 268.664062 C 29.804688 268.507812 31.324219 266.855469 31.320312 264.875 L 31.320312 260.25 C 31.183594 257.132812 28.613281 254.675781 25.492188 254.675781 L 15.089844 254.675781 L 15.089844 284.136719 L 25.773438 284.136719 C 29 284.136719 31.617188 281.519531 31.617188 278.292969 L 31.617188 272.464844 M 21.664062 266.445312 L 21.664062 259.777344 L 24.097656 259.777344 C 24.777344 259.910156 25.269531 260.503906 25.273438 261.195312 L 25.273438 264.753906 C 25.273438 265.511719 24.761719 266.171875 24.03125 266.363281 C 23.890625 266.382812 23.75 266.382812 23.609375 266.363281 Z M 24.367188 279.46875 L 21.664062 279.46875 L 21.664062 271.355469 L 24.207031 271.355469 C 25.027344 271.382812 25.699219 272.011719 25.789062 272.828125 C 25.789062 272.851562 25.789062 272.875 25.789062 272.894531 L 25.789062 278.007812 C 25.792969 278.394531 25.640625 278.765625 25.367188 279.039062 C 25.097656 279.316406 24.726562 279.46875 24.339844 279.46875 "/>
<path style=" stroke:none;fill-rule:nonzero;fill:rgb(95.294118%,75.686275%,3.137255%);fill-opacity:1;" d="M 25.800781 272.894531 C 25.804688 272.875 25.804688 272.851562 25.800781 272.828125 C 25.808594 272.886719 25.808594 272.945312 25.800781 273.003906 Z M 25.800781 272.894531 "/>
<path style=" stroke:none;fill-rule:nonzero;fill:rgb(95.294118%,75.686275%,3.137255%);fill-opacity:1;" d="M 25.273438 264.726562 L 25.273438 261.238281 C 25.269531 260.542969 24.777344 259.953125 24.097656 259.816406 L 21.664062 259.816406 L 21.664062 266.445312 L 23.609375 266.445312 C 23.75 266.457031 23.890625 266.457031 24.03125 266.445312 C 24.761719 266.253906 25.273438 265.59375 25.273438 264.835938 L 25.273438 264.765625 "/>
<path style=" stroke:none;fill-rule:nonzero;fill:rgb(95.294118%,75.686275%,3.137255%);fill-opacity:1;" d="M 22.570312 279.46875 C 22.265625 279.488281 21.964844 279.488281 21.664062 279.46875 C 21.964844 279.496094 22.265625 279.496094 22.570312 279.46875 "/>
<path style=" stroke:none;fill-rule:nonzero;fill:rgb(95.294118%,75.686275%,3.137255%);fill-opacity:1;" d="M 25.800781 277.941406 L 25.800781 273.015625 C 25.808594 272.960938 25.808594 272.898438 25.800781 272.839844 C 25.714844 272.023438 25.039062 271.394531 24.21875 271.367188 L 21.664062 271.367188 L 21.664062 279.484375 C 21.964844 279.5 22.265625 279.5 22.570312 279.484375 C 22.265625 279.507812 21.964844 279.507812 21.664062 279.484375 L 24.367188 279.484375 C 24.753906 279.484375 25.125 279.328125 25.394531 279.054688 C 25.667969 278.78125 25.820312 278.40625 25.816406 278.023438 L 25.816406 277.941406 "/>
<path style=" stroke:none;fill-rule:nonzero;fill:rgb(95.294118%,75.686275%,3.137255%);fill-opacity:1;" d="M 44.683594 261.140625 L 44.574219 260.019531 L 43.855469 260.019531 L 43.804688 260.453125 L 43.707031 261.101562 L 42.03125 274.261719 L 45.941406 274.261719 Z M 44.683594 261.140625 "/>
<path style=" stroke:none;fill-rule:nonzero;fill:rgb(95.294118%,75.686275%,3.137255%);fill-opacity:1;" d="M 176.699219 261.117188 L 176.699219 261.046875 L 176.632812 260.398438 L 176.59375 259.980469 L 175.890625 259.980469 L 175.820312 260.453125 L 175.753906 261.0625 L 174.0625 274.261719 L 177.984375 274.261719 Z M 176.699219 261.117188 "/>
<path style=" stroke:none;fill-rule:nonzero;fill:rgb(95.294118%,75.686275%,3.137255%);fill-opacity:1;" d="M 67.011719 277.820312 C 67.019531 277.761719 67.019531 277.703125 67.011719 277.644531 L 67.011719 278.007812 C 67.019531 277.945312 67.019531 277.882812 67.011719 277.820312 "/>
<path style=" stroke:none;fill-rule:nonzero;fill:rgb(95.294118%,75.686275%,3.137255%);fill-opacity:1;" d="M 67 278.089844 L 67 278.007812 C 67.003906 278.035156 67.003906 278.0625 67 278.089844 Z M 67 278.089844 "/>
<path style=" stroke:none;fill-rule:nonzero;fill:rgb(95.294118%,75.686275%,3.137255%);fill-opacity:1;" d="M 63.050781 278.089844 C 63.042969 278 63.042969 277.910156 63.050781 277.820312 Z M 63.050781 278.089844 "/>
<path style=" stroke:none;fill-rule:nonzero;fill:rgb(95.294118%,75.686275%,3.137255%);fill-opacity:1;" d="M 88.125 240.082031 C 80.632812 240.476562 80.105469 247.277344 80.105469 249.078125 C 79.78125 241.503906 71.191406 240.082031 69.285156 240.082031 L 1.660156 240.082031 L 1.660156 298.484375 L 198.109375 298.484375 L 198.109375 240.082031 Z M 43.277344 247.957031 L 48.6875 247.957031 L 45.316406 252.757812 L 41.761719 252.757812 Z M 31.5625 272.464844 L 31.5625 278.292969 C 31.5625 281.519531 28.945312 284.136719 25.71875 284.136719 L 15.089844 284.136719 L 15.089844 254.675781 L 25.476562 254.675781 C 28.605469 254.667969 31.183594 257.125 31.320312 260.25 L 31.320312 264.875 C 31.320312 266.839844 29.816406 268.480469 27.855469 268.648438 C 29.949219 268.648438 31.644531 270.34375 31.644531 272.4375 Z M 46.859375 284.472656 L 46.320312 278.886719 L 41.492188 278.886719 L 40.789062 284.472656 L 34.242188 284.472656 L 39.652344 254.8125 L 48.632812 254.8125 L 54.3125 284.472656 Z M 73.503906 264.1875 L 73.503906 265.929688 L 67 265.929688 L 67 261.546875 C 66.964844 260.65625 66.339844 259.890625 65.46875 259.683594 L 65.363281 259.683594 C 65.25 259.667969 65.136719 259.667969 65.023438 259.683594 C 64.5 259.683594 63.992188 259.890625 63.621094 260.265625 C 63.253906 260.636719 63.046875 261.144531 63.050781 261.667969 L 63.050781 277.898438 C 63.042969 277.988281 63.042969 278.082031 63.050781 278.171875 C 63.183594 279.152344 64.019531 279.882812 65.011719 279.886719 C 66.003906 279.890625 66.84375 279.15625 66.972656 278.171875 C 66.976562 278.144531 66.976562 278.117188 66.972656 278.089844 L 66.972656 272.816406 L 73.53125 272.816406 L 73.53125 277.96875 C 73.394531 281.769531 69.542969 284.8125 64.820312 284.8125 C 60.101562 284.8125 56.097656 281.644531 56.097656 277.75 L 56.097656 261.722656 C 56.097656 257.828125 60.007812 254.675781 64.820312 254.675781 C 69.636719 254.675781 73.53125 257.84375 73.53125 261.738281 Z M 93.875 284.472656 L 87.109375 284.472656 L 87.109375 271.855469 L 83.390625 271.855469 L 83.390625 284.488281 L 76.480469 284.488281 L 76.480469 254.960938 L 83.390625 254.960938 L 83.390625 265.945312 L 87.207031 265.945312 L 87.207031 254.960938 L 93.96875 254.960938 Z M 124.398438 284.164062 L 117.230469 284.164062 L 114.175781 273.773438 L 112.578125 276.261719 L 112.578125 284.164062 L 106.140625 284.164062 L 106.140625 254.878906 L 112.617188 254.878906 L 112.617188 266.824219 L 117.109375 254.878906 L 124.453125 254.878906 L 118.679688 266.59375 Z M 144.078125 284.472656 L 137.316406 284.472656 L 137.316406 271.855469 L 133.582031 271.855469 L 133.582031 284.488281 L 126.65625 284.488281 L 126.65625 254.960938 L 133.582031 254.960938 L 133.582031 265.945312 L 137.398438 265.945312 L 137.398438 254.960938 L 144.160156 254.960938 Z M 164.460938 263.617188 L 164.460938 277.695312 C 164.460938 281.578125 160.578125 284.714844 155.777344 284.714844 C 150.976562 284.714844 147.109375 281.578125 147.109375 277.695312 L 147.109375 261.722656 C 147.109375 257.84375 150.988281 254.691406 155.777344 254.691406 C 160.566406 254.691406 164.460938 257.84375 164.460938 261.722656 Z M 178.90625 284.472656 L 178.378906 278.886719 L 173.425781 278.886719 L 172.738281 284.472656 L 166.230469 284.472656 L 171.640625 254.8125 L 180.648438 254.8125 L 186.382812 284.472656 Z M 178.90625 284.472656 "/>
<path style=" stroke:none;fill-rule:nonzero;fill:rgb(80.784314%,8.627451%,15.686275%);fill-opacity:1;" d="M 64.847656 254.664062 C 60.019531 254.664062 56.125 257.816406 56.125 261.710938 L 56.125 277.671875 C 56.125 281.566406 60.019531 284.730469 64.847656 284.730469 C 69.675781 284.730469 73.421875 281.6875 73.558594 277.886719 L 73.558594 272.734375 L 67 272.734375 L 67 277.644531 C 67.003906 277.703125 67.003906 277.761719 67 277.820312 C 67.003906 277.882812 67.003906 277.945312 67 278.007812 L 67 278.089844 C 66.871094 279.074219 66.03125 279.808594 65.039062 279.808594 C 64.046875 279.804688 63.210938 279.070312 63.078125 278.089844 C 63.078125 278.089844 63.078125 277.871094 63.078125 277.820312 L 63.078125 261.589844 C 63.074219 261.0625 63.28125 260.558594 63.648438 260.183594 C 64.019531 259.808594 64.523438 259.601562 65.050781 259.601562 C 65.164062 259.585938 65.277344 259.585938 65.390625 259.601562 L 65.496094 259.601562 C 65.722656 259.636719 65.9375 259.730469 66.121094 259.871094 C 66.683594 260.234375 67.027344 260.863281 67.027344 261.535156 L 67.027344 265.917969 L 73.585938 265.917969 L 73.585938 261.667969 C 73.585938 257.773438 69.691406 254.609375 64.875 254.609375 "/>
<path style=" stroke:none;fill-rule:nonzero;fill:rgb(80.784314%,8.627451%,15.686275%);fill-opacity:1;" d="M 153.734375 261.589844 L 153.734375 261.722656 C 153.730469 261.679688 153.730469 261.632812 153.734375 261.589844 "/>
<path style=" stroke:none;fill-rule:nonzero;fill:rgb(80.784314%,8.627451%,15.686275%);fill-opacity:1;" d="M 164.515625 277.695312 L 164.515625 276.34375 C 164.515625 276.34375 164.515625 276.65625 164.515625 277.089844 C 164.527344 277.304688 164.527344 277.523438 164.515625 277.738281 "/>
<path style=" stroke:none;fill-rule:nonzero;fill:rgb(80.784314%,8.627451%,15.686275%);fill-opacity:1;" d="M 164.40625 277.695312 L 164.515625 277.695312 C 164.527344 277.480469 164.527344 277.265625 164.515625 277.046875 C 164.515625 277.238281 164.515625 277.46875 164.515625 277.695312 "/>
<path style=" stroke:none;fill-rule:nonzero;fill:rgb(80.784314%,8.627451%,15.686275%);fill-opacity:1;" d="M 155.832031 254.691406 C 151.042969 254.691406 147.160156 257.84375 147.160156 261.722656 L 147.160156 277.617188 C 147.160156 281.496094 151.042969 284.636719 155.832031 284.636719 C 160.621094 284.636719 164.515625 281.496094 164.515625 277.617188 L 164.40625 277.617188 C 164.40625 277.386719 164.40625 277.15625 164.40625 276.964844 C 164.40625 276.535156 164.40625 276.222656 164.40625 276.222656 L 164.40625 261.722656 C 164.40625 257.84375 160.523438 254.691406 155.722656 254.691406 M 157.699219 261.722656 L 157.699219 278.089844 C 157.558594 279.074219 156.714844 279.804688 155.722656 279.808594 C 155.144531 279.804688 154.59375 279.546875 154.222656 279.105469 C 154 278.847656 153.851562 278.542969 153.789062 278.210938 C 153.789062 278.210938 153.789062 278.128906 153.789062 278.089844 C 153.789062 278.046875 153.789062 277.914062 153.789062 277.820312 L 153.789062 261.589844 C 153.785156 260.613281 154.492188 259.78125 155.453125 259.628906 L 155.765625 259.628906 C 156.289062 259.628906 156.792969 259.835938 157.164062 260.210938 C 157.535156 260.585938 157.742188 261.089844 157.738281 261.617188 Z M 157.699219 261.722656 "/>
<path style=" stroke:none;fill-rule:nonzero;fill:rgb(95.294118%,75.686275%,3.137255%);fill-opacity:1;" d="M 157.804688 261.589844 C 157.808594 261.0625 157.601562 260.558594 157.234375 260.183594 C 156.863281 259.808594 156.359375 259.601562 155.832031 259.601562 L 155.519531 259.601562 C 154.558594 259.753906 153.851562 260.585938 153.855469 261.5625 L 153.855469 277.792969 C 153.855469 277.886719 153.855469 277.96875 153.855469 278.0625 C 153.855469 278.15625 153.855469 278.144531 153.855469 278.183594 C 153.917969 278.515625 154.070312 278.824219 154.289062 279.078125 C 154.660156 279.523438 155.210938 279.777344 155.789062 279.78125 C 156.785156 279.777344 157.625 279.046875 157.765625 278.0625 L 157.765625 261.5625 M 157.644531 277.695312 Z M 157.644531 277.695312 "/>
<path style=" stroke:none;fill-rule:nonzero;fill:rgb(80.784314%,8.627451%,15.686275%);fill-opacity:1;" d="M 113.253906 24.25 C 113.253906 22.007812 111.4375 20.191406 109.195312 20.191406 L 101.554688 20.191406 L 101.554688 27.914062 L 100.488281 27.914062 L 100.488281 30.621094 L 101.554688 30.621094 L 101.554688 39.832031 L 109.222656 39.832031 C 111.464844 39.832031 113.28125 38.015625 113.28125 35.773438 C 113.289062 35.746094 113.289062 35.71875 113.28125 35.691406 L 113.28125 24.574219 C 113.28125 24.574219 113.28125 24.492188 113.28125 24.46875 C 113.289062 24.394531 113.289062 24.324219 113.28125 24.25 M 107.789062 36.613281 L 105.9375 36.613281 L 105.9375 30.539062 L 107.453125 30.539062 L 107.453125 27.835938 L 106.003906 27.835938 L 106.003906 23.386719 L 107.667969 23.386719 C 107.746094 23.371094 107.824219 23.371094 107.898438 23.386719 L 108.007812 23.386719 C 108.042969 23.378906 108.078125 23.378906 108.113281 23.386719 L 108.195312 23.386719 C 108.4375 23.585938 108.570312 23.894531 108.546875 24.210938 L 108.546875 35.152344 C 108.550781 35.304688 108.523438 35.457031 108.464844 35.597656 C 108.320312 35.972656 108.003906 36.253906 107.613281 36.355469 "/>
<path style=" stroke:none;fill-rule:nonzero;fill:rgb(100%,100%,100%);fill-opacity:1;" d="M 108.695312 28.265625 L 108.695312 24.46875 C 108.71875 24.152344 108.59375 23.847656 108.359375 23.640625 L 108.277344 23.640625 C 108.242188 23.632812 108.203125 23.632812 108.167969 23.640625 L 108.0625 23.640625 C 107.984375 23.628906 107.90625 23.628906 107.832031 23.640625 L 106.003906 23.640625 L 106.003906 28.160156 L 107.453125 28.160156 L 107.453125 30.863281 L 106.003906 30.863281 L 106.003906 36.9375 L 107.777344 36.9375 C 108.164062 36.835938 108.480469 36.554688 108.628906 36.179688 C 108.6875 36.039062 108.722656 35.886719 108.722656 35.734375 Z M 108.695312 28.265625 "/>
<path style=" stroke:none;fill-rule:nonzero;fill:rgb(100%,100%,100%);fill-opacity:1;" d="M 121.519531 23.886719 L 121.492188 23.628906 L 121.03125 23.628906 L 120.992188 23.925781 L 119.8125 33.082031 L 122.425781 33.082031 Z M 121.519531 23.886719 "/>
<path style=" stroke:none;fill-rule:nonzero;fill:rgb(80.784314%,8.627451%,15.686275%);fill-opacity:1;" d="M 166.707031 24.140625 C 166.542969 21.625 164 19.613281 160.808594 19.613281 C 157.617188 19.613281 154.910156 21.75 154.910156 24.386719 L 154.910156 35.285156 C 154.910156 37.625 156.980469 39.5625 159.726562 39.980469 C 160.085938 40.035156 160.445312 40.0625 160.808594 40.0625 L 161.472656 40.0625 C 164.40625 39.789062 166.691406 37.789062 166.71875 35.339844 L 166.71875 24.34375 C 166.71875 24.265625 166.71875 24.183594 166.71875 24.101562 M 160.929688 36.625 C 160.851562 36.640625 160.769531 36.640625 160.6875 36.625 C 160.460938 36.632812 160.238281 36.554688 160.066406 36.410156 C 159.699219 36.1875 159.457031 35.808594 159.414062 35.382812 L 159.414062 24.15625 C 159.53125 23.515625 160.121094 23.070312 160.769531 23.128906 C 161.425781 23.039062 162.03125 23.5 162.121094 24.15625 L 162.121094 35.382812 C 162.089844 36.03125 161.601562 36.5625 160.957031 36.652344 "/>
<path style=" stroke:none;fill-rule:nonzero;fill:rgb(100%,100%,100%);fill-opacity:1;" d="M 160.753906 23.128906 C 160.105469 23.070312 159.519531 23.515625 159.402344 24.15625 L 159.402344 35.460938 C 159.445312 35.890625 159.683594 36.269531 160.050781 36.492188 C 160.226562 36.636719 160.445312 36.714844 160.671875 36.707031 C 160.753906 36.71875 160.835938 36.71875 160.917969 36.707031 C 161.558594 36.617188 162.046875 36.082031 162.082031 35.4375 L 162.082031 24.210938 C 161.988281 23.554688 161.382812 23.09375 160.726562 23.183594 "/>
<path style=" stroke:none;fill-rule:nonzero;fill:rgb(80.784314%,8.627451%,15.686275%);fill-opacity:1;" d="M 174.359375 19.613281 C 171.101562 19.613281 168.449219 21.75 168.449219 24.386719 L 168.449219 35.285156 C 168.449219 37.925781 171.15625 40.074219 174.359375 40.074219 C 177.566406 40.074219 180.269531 37.925781 180.269531 35.285156 L 180.269531 31.945312 L 175.792969 31.945312 L 175.792969 35.339844 C 175.800781 36.019531 175.304688 36.597656 174.632812 36.695312 L 174.441406 36.695312 C 174.207031 36.695312 173.976562 36.628906 173.78125 36.503906 C 173.394531 36.285156 173.140625 35.890625 173.101562 35.449219 L 173.101562 24.441406 C 173.117188 23.824219 173.546875 23.296875 174.144531 23.15625 L 174.402344 23.15625 C 175.148438 23.15625 175.753906 23.761719 175.753906 24.507812 L 175.753906 27.441406 L 180.230469 27.441406 L 180.230469 24.34375 C 180.230469 21.640625 177.59375 19.570312 174.320312 19.570312 "/>
<path style=" stroke:none;fill-rule:nonzero;fill:rgb(100%,100%,100%);fill-opacity:1;" d="M 80.160156 1.621094 L 80.160156 96.027344 L 144.59375 54.101562 L 144.945312 53.882812 L 145.835938 53.410156 C 146.960938 52.839844 148.203125 52.542969 149.460938 52.546875 C 152.179688 52.515625 154.746094 53.808594 156.335938 56.015625 C 157.925781 58.222656 158.34375 61.066406 157.453125 63.636719 C 156.949219 64.710938 156.347656 65.738281 155.65625 66.707031 L 103.003906 148.953125 C 105.089844 150.425781 107.019531 152.105469 108.765625 153.96875 L 114.957031 150.398438 L 123.25 164.761719 L 117.203125 168.238281 C 119.519531 175.617188 119.519531 183.527344 117.203125 190.90625 L 123.210938 194.355469 L 114.917969 208.707031 L 108.859375 205.214844 C 103.625 210.855469 96.789062 214.757812 89.273438 216.402344 L 89.273438 223.542969 L 80.160156 223.542969 L 80.160156 243.304688 C 82.078125 238.5 87.191406 238.582031 88.734375 238.582031 L 198.207031 238.449219 L 198.207031 1.621094 Z M 113.253906 24.617188 L 113.253906 35.8125 C 113.253906 38.054688 111.4375 39.871094 109.195312 39.871094 L 101.554688 39.871094 L 101.554688 30.648438 L 100.488281 30.648438 L 100.488281 27.941406 L 101.554688 27.941406 L 101.554688 20.179688 L 109.183594 20.179688 C 111.425781 20.179688 113.242188 21.996094 113.242188 24.238281 C 113.246094 24.308594 113.246094 24.382812 113.242188 24.453125 C 113.25 24.488281 113.25 24.527344 113.242188 24.5625 M 123.289062 44.496094 L 118.960938 44.496094 L 118.960938 41.929688 L 123.289062 41.929688 Z M 123.074219 39.859375 L 122.734375 36.167969 L 119.4375 36.167969 L 118.960938 39.859375 L 114.632812 39.859375 L 118.21875 20.179688 L 124.195312 20.179688 L 128.066406 39.859375 Z M 133.757812 39.859375 L 129.226562 39.859375 L 129.226562 20.179688 L 133.757812 20.179688 Z M 152.695312 39.859375 L 148.164062 39.859375 L 148.164062 31.433594 L 145.648438 31.433594 L 145.648438 39.859375 L 140.871094 39.859375 L 140.871094 20.179688 L 145.550781 20.179688 L 145.550781 27.511719 L 148.066406 27.511719 L 148.066406 20.179688 L 152.597656 20.179688 Z M 162.972656 44.496094 L 158.644531 44.496094 L 158.644531 41.929688 L 162.972656 41.929688 Z M 166.71875 24.34375 L 166.71875 35.328125 C 166.71875 37.777344 164.40625 39.777344 161.472656 40.046875 C 160.894531 40.140625 160.304688 40.140625 159.726562 40.046875 C 157.023438 39.628906 154.910156 37.695312 154.910156 35.355469 L 154.910156 24.34375 C 154.910156 21.640625 157.617188 19.570312 160.808594 19.570312 C 164 19.570312 166.570312 21.640625 166.707031 24.140625 C 166.707031 24.140625 166.707031 24.265625 166.707031 24.332031 Z M 180.246094 25.777344 L 180.246094 27.375 L 175.765625 27.375 L 175.765625 24.480469 C 175.765625 23.734375 175.160156 23.128906 174.414062 23.128906 L 174.15625 23.128906 C 173.554688 23.265625 173.117188 23.792969 173.101562 24.414062 L 173.101562 35.421875 C 173.140625 35.863281 173.394531 36.257812 173.78125 36.476562 C 173.976562 36.601562 174.207031 36.667969 174.441406 36.667969 L 174.632812 36.667969 C 175.304688 36.570312 175.800781 35.992188 175.792969 35.3125 L 175.792969 31.945312 L 180.269531 31.945312 L 180.269531 35.339844 C 180.269531 37.976562 177.632812 40.117188 174.359375 40.117188 C 171.085938 40.117188 168.449219 37.976562 168.449219 35.339844 L 168.449219 24.425781 C 168.449219 21.722656 171.15625 19.652344 174.359375 19.652344 C 177.566406 19.652344 180.269531 21.789062 180.269531 24.425781 Z M 180.246094 25.777344 "/>
</g>
</svg>
