<svg width="92" height="77" viewBox="0 0 92 77" fill="none" xmlns="http://www.w3.org/2000/svg">
<g clip-path="url(#clip0_723_5517)">
<path d="M88.7635 38.4987C90.1843 37.1139 91.18 35.4599 91.6641 33.6802C92.1483 31.9004 92.1063 30.0487 91.5418 28.2856C90.9773 26.5225 89.9073 24.9013 88.4247 23.5627C86.9421 22.224 85.0917 21.2083 83.0339 20.6037C83.4371 18.8098 83.3112 16.9607 82.6672 15.2167C82.0231 13.4727 80.8804 11.8866 79.3381 10.596C77.7958 9.30531 75.9005 8.34911 73.8167 7.81031C71.7329 7.27152 69.5235 7.1664 67.3801 7.50408C66.6583 5.78143 65.445 4.23228 63.8455 2.99113C62.246 1.74998 60.3087 0.854343 58.2019 0.381981C56.095 -0.0903812 53.8822 -0.12519 51.7556 0.280577C49.629 0.686344 47.6528 1.52042 45.9988 2.71039C44.3442 1.52124 42.368 0.687914 40.2415 0.282708C38.115 -0.122498 35.9025 -0.0873464 33.7959 0.385112C31.6893 0.857571 29.7523 1.75307 28.1528 2.99392C26.5534 4.23477 25.3398 5.7835 24.6174 7.50575C22.4742 7.16861 20.265 7.2742 18.1815 7.81336C16.098 8.35252 14.2032 9.30896 12.6614 10.5997C11.1195 11.8905 9.97722 13.4766 9.33355 15.2205C8.68988 16.9644 8.56429 18.8134 8.96766 20.6071C6.90987 21.2117 5.05941 22.2274 3.57681 23.566C2.09422 24.9047 1.02425 26.5258 0.459746 28.2889C-0.104759 30.052 -0.146765 31.9038 0.337385 33.6835C0.821534 35.4633 1.81723 37.1173 3.23806 38.5021C1.8168 39.8868 0.820796 41.5409 0.336509 43.3209C-0.147778 45.1008 -0.105736 46.9528 0.459016 48.716C1.02377 50.4793 2.09415 52.1005 3.57725 53.4391C5.06036 54.7776 6.91139 55.793 8.96966 56.3971C8.56594 58.1908 8.69139 60.0399 9.33513 61.7839C9.97888 63.5279 11.1215 65.114 12.6637 66.4046C14.2059 67.6952 16.1012 68.6513 18.185 69.1898C20.2689 69.7284 22.4782 69.8331 24.6214 69.495C25.3438 71.2173 26.5574 72.766 28.1568 74.0069C29.7563 75.2477 31.6933 76.1432 33.7999 76.6157C35.9065 77.0881 38.119 77.1233 40.2454 76.7181C42.3719 76.3129 44.3482 75.4795 46.0028 74.2904C47.6573 75.4799 49.6337 76.3135 51.7604 76.7188C53.8871 77.1241 56.0998 77.089 58.2066 76.6163C60.3134 76.1436 62.2505 75.2478 63.8498 74.0065C65.4491 72.7652 66.6623 71.216 67.3841 69.4934C69.5274 69.8311 71.7368 69.7261 73.8206 69.1873C75.9043 68.6485 77.7995 67.6923 79.3417 66.4016C80.8839 65.1109 82.0264 63.5247 82.6702 61.7807C83.3139 60.0367 83.4394 58.1875 83.0359 56.3937C85.0938 55.7893 86.9444 54.7736 88.4271 53.4349C89.9098 52.0962 90.9797 50.4749 91.544 48.7117C92.1084 46.9485 92.1501 45.0966 91.6655 43.3169C91.181 41.5371 90.1848 39.8832 88.7635 38.4987Z" fill="#6938EF"/>
<path d="M37.7437 53.195L24.9608 42.503C24.4756 42.0963 24.2031 41.5451 24.2031 40.9705C24.2031 40.3958 24.4756 39.8446 24.9608 39.4379L26.5138 38.1365C26.9997 37.7304 27.6582 37.5024 28.3449 37.5024C29.0315 37.5024 29.6901 37.7304 30.176 38.1365L39.4682 45.9085L61.3519 26.4451C61.8228 26.0269 62.4727 25.7822 63.1589 25.7647C63.8452 25.7472 64.5117 25.9583 65.0122 26.3516L66.6071 27.6114C67.1073 28.0055 67.4 28.5498 67.421 29.1246C67.4419 29.6993 67.1893 30.2575 66.7187 30.6765L41.4678 53.1466C41.23 53.3586 40.9437 53.5285 40.626 53.6462C40.3082 53.7638 39.9654 53.8267 39.618 53.8312C39.2706 53.8357 38.9256 53.7817 38.6036 53.6724C38.2816 53.5631 37.9892 53.4008 37.7437 53.195Z" fill="white"/>
</g>
<defs>
<clipPath id="clip0_723_5517">
<rect width="92" height="77" fill="white"/>
</clipPath>
</defs>
</svg>
